<svg width="75" height="72" viewBox="0 0 75 69" fill="none" xmlns="http://www.w3.org/2000/svg">
    <path d="M60 45.8794H52.5V53.526H60M60 30.5863H52.5V38.2328H60M67.5 61.1726H37.5V53.526H45V45.8794H37.5V38.2328H45V30.5863H37.5V22.9397H67.5M30 15.2931H22.5V7.64657H30M30 30.5863H22.5V22.9397H30M30 45.8794H22.5V38.2328H30M30 61.1726H22.5V53.526H30M15 15.2931H7.5V7.64657H15M15 30.5863H7.5V22.9397H15M15 45.8794H7.5V38.2328H15M15 61.1726H7.5V53.526H15M37.5 15.2931V0H0V68.8191H75V15.2931H37.5Z" fill="white"/>
</svg>