<svg width="91" height="72" viewBox="0 0 91 50" fill="none" xmlns="http://www.w3.org/2000/svg">
    <path d="M83.4167 0H34.125C29.9542 0 26.5417 3.4125 26.5417 7.58333V41.7083C26.5417 43.7196 27.3406 45.6484 28.7628 47.0706C30.1849 48.4927 32.1138 49.2917 34.125 49.2917H83.4167C87.6254 49.2917 91 45.9171 91 41.7083V7.58333C91 5.57211 90.201 3.64326 88.7789 2.22111C87.3567 0.798956 85.4279 0 83.4167 0ZM83.4167 13.9154L58.7708 26.5417L34.125 13.9154V7.58333L58.7708 20.1338L83.4167 7.58333V13.9154ZM18.9583 41.7083C18.9583 42.3529 19.0721 42.9596 19.1479 43.6042H3.79167C1.69867 43.6042 0 41.8979 0 39.8125C0 37.7271 1.69867 36.0208 3.79167 36.0208H18.9583V41.7083ZM11.375 5.6875H19.1479C19.0721 6.33208 18.9583 6.93875 18.9583 7.58333V13.2708H11.375C9.28958 13.2708 7.58333 11.5646 7.58333 9.47917C7.58333 7.39375 9.28958 5.6875 11.375 5.6875ZM3.79167 24.6458C3.79167 22.5604 5.49792 20.8542 7.58333 20.8542H18.9583V28.4375H7.58333C5.49792 28.4375 3.79167 26.7313 3.79167 24.6458Z" fill="white"/>
</svg>