<svg width="32" height="32" viewBox="0 0 32 32" fill="none" xmlns="http://www.w3.org/2000/svg">
<path fill-rule="evenodd" clip-rule="evenodd" d="M10.2857 0C9.15429 0 8.26743 0.875636 7.71886 1.92582C7.16343 2.98473 6.85714 4.36655 6.85714 5.81818C6.85714 7.26982 7.16343 8.65164 7.71886 9.71055C8.26743 10.7578 9.15429 11.6364 10.2857 11.6364C11.4171 11.6364 12.304 10.7607 12.8526 9.71055C13.408 8.65164 13.7143 7.26982 13.7143 5.81818C13.7143 4.36655 13.408 2.98473 12.8526 1.92582C12.304 0.878545 11.4171 0 10.2857 0ZM21.7143 0C20.5829 0 19.696 0.875636 19.1474 1.92582C18.592 2.98473 18.2857 4.36655 18.2857 5.81818C18.2857 7.26982 18.592 8.65164 19.1474 9.71055C19.696 10.7578 20.5829 11.6364 21.7143 11.6364C22.8457 11.6364 23.7326 10.7607 24.2811 9.71055C24.8366 8.65164 25.1429 7.26982 25.1429 5.81818C25.1429 4.36655 24.8366 2.98473 24.2811 1.92582C23.7326 0.878545 22.8457 0 21.7143 0ZM3.42857 13.0909C2.29714 13.0909 1.41029 13.9665 0.861714 15.0167C0.306286 16.0756 0 17.4575 0 18.9091C0 20.3607 0.306286 21.7425 0.861714 22.8015C1.41029 23.8487 2.29714 24.7273 3.42857 24.7273C4.56 24.7273 5.44686 23.8516 5.99543 22.8015C6.55086 21.7425 6.85714 20.3607 6.85714 18.9091C6.85714 17.4575 6.55086 16.0756 5.99543 15.0167C5.44686 13.9695 4.56 13.0909 3.42857 13.0909ZM16 13.0909C13.2571 13.0909 11.2251 14.9644 9.92686 17.2887C8.64457 19.5782 8 22.4204 8 24.7273C8 27.4153 9.26857 29.2858 10.8251 30.4058C12.3566 31.5113 14.2766 32 16 32C17.7234 32 19.6434 31.5142 21.1749 30.4058C22.7291 29.2829 24 27.4153 24 24.7273C24 22.4204 23.3554 19.5782 22.0731 17.2887C20.7771 14.9615 18.7451 13.0909 16 13.0909ZM28.5714 13.0909C27.44 13.0909 26.5531 13.9665 26.0046 15.0167C25.4491 16.0756 25.1429 17.4575 25.1429 18.9091C25.1429 20.3607 25.4491 21.7425 26.0046 22.8015C26.5531 23.8487 27.44 24.7273 28.5714 24.7273C29.7029 24.7273 30.5897 23.8516 31.1383 22.8015C31.6937 21.7425 32 20.3607 32 18.9091C32 17.4575 31.6937 16.0756 31.1383 15.0167C30.5897 13.9695 29.7029 13.0909 28.5714 13.0909Z" fill="#070707"/>
</svg>
