<svg width="72" height="72" viewBox="0 0 72 72" fill="none" xmlns="http://www.w3.org/2000/svg">
    <path d="M46.5833 43C51.2003 43.0003 55.639 44.7829 58.9737 47.976C62.3084 51.1692 64.2817 55.5264 64.4821 60.1391L64.5 60.9167V64.5C64.5006 66.3081 63.8177 68.0495 62.5883 69.3753C61.3589 70.7011 59.6738 71.5131 57.8708 71.6488L57.3333 71.6667H7.16667C5.3586 71.6672 3.61714 70.9844 2.29137 69.755C0.965603 68.5256 0.153522 66.8405 0.0179171 65.0375L0 64.5V60.9167C0.000266752 56.2997 1.78286 51.861 4.97603 48.5263C8.1692 45.1916 12.5264 43.2183 17.1391 43.0179L17.9167 43H46.5833ZM68.0833 39.4167C69.0337 39.4167 69.9451 39.7942 70.6171 40.4662C71.2891 41.1382 71.6667 42.0496 71.6667 43C71.6667 43.9504 71.2891 44.8618 70.6171 45.5338C69.9451 46.2058 69.0337 46.5833 68.0833 46.5833H64.5C63.5496 46.5833 62.6382 46.2058 61.9662 45.5338C61.2942 44.8618 60.9167 43.9504 60.9167 43C60.9167 42.0496 61.2942 41.1382 61.9662 40.4662C62.6382 39.7942 63.5496 39.4167 64.5 39.4167H68.0833ZM32.25 0C37.0018 0 41.559 1.88764 44.919 5.24767C48.279 8.6077 50.1667 13.1649 50.1667 17.9167C50.1667 22.6685 48.279 27.2256 44.919 30.5857C41.559 33.9457 37.0018 35.8333 32.25 35.8333C27.4982 35.8333 22.941 33.9457 19.581 30.5857C16.221 27.2256 14.3333 22.6685 14.3333 17.9167C14.3333 13.1649 16.221 8.6077 19.581 5.24767C22.941 1.88764 27.4982 0 32.25 0ZM68.0833 28.6667C69.0337 28.6667 69.9451 29.0442 70.6171 29.7162C71.2891 30.3882 71.6667 31.2996 71.6667 32.25C71.6667 33.2004 71.2891 34.1118 70.6171 34.7838C69.9451 35.4558 69.0337 35.8333 68.0833 35.8333H60.9167C59.9663 35.8333 59.0549 35.4558 58.3829 34.7838C57.7109 34.1118 57.3333 33.2004 57.3333 32.25C57.3333 31.2996 57.7109 30.3882 58.3829 29.7162C59.0549 29.0442 59.9663 28.6667 60.9167 28.6667H68.0833ZM68.0833 17.9167C68.9967 17.9177 69.8751 18.2674 70.5392 18.8944C71.2034 19.5213 71.603 20.3782 71.6565 21.29C71.7101 22.2017 71.4134 23.0995 70.8272 23.7999C70.241 24.5003 69.4095 24.9504 68.5026 25.0583L68.0833 25.0833H57.3333C56.42 25.0823 55.5416 24.7326 54.8774 24.1056C54.2133 23.4787 53.8137 22.6218 53.7601 21.71C53.7066 20.7983 54.0032 19.9005 54.5894 19.2001C55.1756 18.4997 56.0072 18.0496 56.9141 17.9417L57.3333 17.9167H68.0833Z" fill="white"/>
</svg>