<svg width="40" height="36" viewBox="0 0 40 36" fill="none" xmlns="http://www.w3.org/2000/svg">
    <path fill-rule="evenodd" clip-rule="evenodd" d="M12.8571 0C11.4429 0 10.3343 0.979854 9.64857 2.15503C8.95429 3.33997 8.57143 4.88625 8.57143 6.51066C8.57143 8.13507 8.95429 9.68135 9.64857 10.8663C10.3343 12.0382 11.4429 13.0213 12.8571 13.0213C14.2714 13.0213 15.38 12.0415 16.0657 10.8663C16.76 9.68135 17.1429 8.13507 17.1429 6.51066C17.1429 4.88625 16.76 3.33997 16.0657 2.15503C15.38 0.983109 14.2714 0 12.8571 0ZM27.1429 0C25.7286 0 24.62 0.979854 23.9343 2.15503C23.24 3.33997 22.8571 4.88625 22.8571 6.51066C22.8571 8.13507 23.24 9.68135 23.9343 10.8663C24.62 12.0382 25.7286 13.0213 27.1429 13.0213C28.5571 13.0213 29.6657 12.0415 30.3514 10.8663C31.0457 9.68135 31.4286 8.13507 31.4286 6.51066C31.4286 4.88625 31.0457 3.33997 30.3514 2.15503C29.6657 0.983109 28.5571 0 27.1429 0ZM4.28571 14.649C2.87143 14.649 1.76286 15.6288 1.07714 16.804C0.382857 17.989 0 19.5352 0 21.1596C0 22.7841 0.382857 24.3303 1.07714 25.5153C1.76286 26.6872 2.87143 27.6703 4.28571 27.6703C5.7 27.6703 6.80857 26.6905 7.49429 25.5153C8.18857 24.3303 8.57143 22.7841 8.57143 21.1596C8.57143 19.5352 8.18857 17.989 7.49429 16.804C6.80857 15.6321 5.7 14.649 4.28571 14.649ZM20 14.649C16.5714 14.649 14.0314 16.7454 12.4086 19.3464C10.8057 21.9084 10 25.0888 10 27.6703C10 30.6782 11.5857 32.7714 13.5314 34.0247C15.4457 35.2617 17.8457 35.8086 20 35.8086C22.1543 35.8086 24.5543 35.265 26.4686 34.0247C28.4114 32.7682 30 30.6782 30 27.6703C30 25.0888 29.1943 21.9084 27.5914 19.3464C25.9714 16.7422 23.4314 14.649 20 14.649ZM35.7143 14.649C34.3 14.649 33.1914 15.6288 32.5057 16.804C31.8114 17.989 31.4286 19.5352 31.4286 21.1596C31.4286 22.7841 31.8114 24.3303 32.5057 25.5153C33.1914 26.6872 34.3 27.6703 35.7143 27.6703C37.1286 27.6703 38.2371 26.6905 38.9229 25.5153C39.6171 24.3303 40 22.7841 40 21.1596C40 19.5352 39.6171 17.989 38.9229 16.804C38.2371 15.6321 37.1286 14.649 35.7143 14.649Z" fill="black"/>
</svg>