<svg width="51" height="28" viewBox="0 0 51 28" fill="none" xmlns="http://www.w3.org/2000/svg">
    <path d="M11.3333 0C8.058 0 5.1425 0.877344 3.10533 2.55503C1.06533 4.23505 0 6.63141 0 9.32878C0 11.8558 0.538333 13.9022 2.01167 15.5145C3.179 16.7885 5.07167 17.5492 7.02667 18.3449C7.03233 20.9046 6.97 21.8636 4.53333 25.373C3.43967 26.9527 5.63267 28.6863 7.50267 27.7227C13.2373 24.7733 17.0198 22.4959 19.4452 19.6656C21.8733 16.8352 22.6667 13.5755 22.6667 9.32878C22.6667 6.63141 21.607 4.23505 19.567 2.55503C17.527 0.875011 14.6087 0 11.3333 0ZM39.6667 0C36.3913 0 33.4758 0.877344 31.4387 2.55503C29.3987 4.23505 28.3333 6.63141 28.3333 9.32878C28.3333 11.8558 28.8717 13.9022 30.345 15.5145C31.5123 16.7885 33.405 17.5492 35.36 18.3449C35.3657 20.9046 35.3033 21.8636 32.8667 25.373C31.773 26.9527 33.966 28.6863 35.836 27.7227C41.5707 24.7733 45.3532 22.4959 47.7785 19.6656C50.2067 16.8352 51 13.5755 51 9.32878C51 6.63141 49.9403 4.23505 47.9003 2.55503C45.8603 0.875011 42.942 0 39.6667 0Z" fill="white"/>
</svg>